<svg xmlns="http://www.w3.org/2000/svg" version="1.1"
   xmlns:xlink="http://www.w3.org/1999/xlink"
   xmlns:svgjs="http://svgjs.dev/svgjs" width="2000" height="2250" viewBox="0 0 2000 2250">
   <g transform="matrix(1,0,0,1,3.410605131648481e-13,0)">
      <svg viewBox="0 0 320 360" data-background-color="#ffffff" preserveAspectRatio="xMidYMid meet" height="2250" width="2000"
         xmlns="http://www.w3.org/2000/svg"
         xmlns:xlink="http://www.w3.org/1999/xlink">
         <g id="tight-bounds" transform="matrix(1,0,0,1,0,0)">
            <svg viewBox="0 0 320 360" height="360" width="320">
               <g>
                  <svg />
               </g>
               <g>
                  <svg viewBox="0 0 320 360" height="360" width="320">
                     <g>
                        <path xmlns="http://www.w3.org/2000/svg" d="M20.961 227.22l3.726 4.658-1.863-6.056c-0.466-2.795-3.726 0.466-1.863 1.398M25.153 224.425c1.397 2.329 2.795 4.658 2.795 6.987 0 3.261 2.795 4.658 5.123 5.589-3.261-3.726-5.124-13.974-7.918-12.576M204.017 26.929c7.918 0 15.371-0.932 23.756 0.931 20.495 5.124 37.729 15.371 49.374 29.811l32.606 52.169c1.397 13.042 4.192 27.482 3.726 43.319 3.261 0 2.795-4.658 6.521-5.59-3.726 9.316-5.59 20.961-6.521 34.469-2.329-7.453 0-18.632 0.466-24.687-3.261 5.124-5.124 1.397-5.124-0.932 0.466-3.726-1.397-3.261-2.795-4.658-5.124-4.658-8.384-9.782-12.11-17.7 2.329-6.055 2.795-14.905-4.658-19.563-2.329-1.397-5.124-3.726-6.521-7.453-1.863-5.124-5.124-11.179-4.193-19.097 0.466-2.329-6.987 5.124-11.179 1.863-18.166-12.576-36.332-27.016-58.224-39.127-11.645 0-20.029-4.192-24.221-9.316-3.726-4.658-0.932-10.713 4.658-11.179 3.261 0 6.987-0.932 9.782 0.932 0.466-1.863 2.329-4.192 4.657-4.192M157.904 16.215l0.932 0.466c4.658 0.932 6.987 7.453 12.11 5.124 0 3.261 0.466 6.521-0.466 8.85-1.397 3.726-5.59 3.726-8.85 3.726-31.208-1.863-49.374 11.179-68.471 22.358-5.124 3.261-10.713 5.59-14.906 9.782-20.029 18.632-41.921 35.866-47.045 70.335l-4.192 38.195c-0.466 4.192-5.124 8.384-4.192 13.508l3.26 22.824c-3.261-3.261-5.124 0.932-4.192 2.795 0.466 1.397 2.329 6.055 5.124 1.863 3.726 6.987 7.453 20.495 12.576 26.55 15.837 18.632 36.332 35.4 53.101 52.169 4.192-0.932 7.453-0.932 8.384-3.727 1.397 2.795-1.397 5.59-3.726 6.056 7.453 4.658 15.837 8.85 27.016 9.781 14.44 0.932 27.948 3.261 40.524 6.522 6.521-1.863 13.042-2.795 20.029-3.261 2.329 0 3.726-3.726 6.521-4.658l0.466-4.658c2.795 4.192 2.329-1.397 0.466-4.192 3.261 2.795 4.192 5.124 5.589 6.987 0-1.397 3.726-6.521 3.727-0.466l0.931-6.055c1.397-0.932 1.863 5.124 3.261 0.931 1.397-4.192 4.192-0.932 6.987-2.329-0.932 1.863-0.466 5.59 2.794 3.261l3.727-3.261c2.329 5.59 6.055 3.261 7.918 2.329 20.495-13.042 40.99-28.413 60.553-43.784l-0.466 6.055 2.329-7.453c2.329 2.329 4.192 0.466 5.124-0.931 2.795-4.658 6.521-9.316 12.577-13.508-7.453 20.029-16.303 35.866-27.482 48.908l-4.658 5.59c0 3.261-0.932 7.453-4.658 7.918-1.863 0.466-5.59-0.932-8.384 1.863-1.397 1.863 3.261 5.59-0.466 2.795-3.261-2.329-6.521 0-10.248 0.932-2.795 0.932 1.863 3.726 2.795 5.589 0.932 1.863 1.863 3.726 1.398 6.056l-5.124-5.59c-6.055 3.261-9.782 9.316-14.906 13.974-2.329 1.863-1.397 5.124-1.397 7.918-3.261 0-6.987-0.932-8.85 0.932-1.397 1.863-0.932 4.658-0.932 7.453-4.658-0.466-5.124-7.453-9.315-6.056-4.192 0.932-8.85 1.397-12.577 3.727 2.795 5.59-4.658 2.329-3.726 3.26-6.987-4.192-13.042-7.453-20.495-4.658-15.837-5.124-35.4-2.795-49.84-0.931 0-2.329 0.466-4.658-0.466-5.124-0.932 2.329-3.726 1.397-3.26 1.397-8.85-6.055-17.7-9.782-27.016-14.905-8.384 0.932-16.303-3.261-18.632-5.59-6.521-6.055-13.974-2.795-20.029-4.192-13.042-3.261-17.7-16.769-19.098-26.084-0.932-4.658-4.658-6.521-6.055-6.056-6.055-19.563-15.371-37.263-22.824-55.429-1.863-4.658-1.397-9.316-1.397-14.44 2.329 0.932 4.658 0.466 4.192-2.794-2.329-15.371-7.918-27.016-13.974-38.195 3.261-15.837 3.726-34.469 11.179-48.443 6.521-12.576 18.632-19.098 27.016-29.811 2.795-3.726 2.795-8.85 5.59-12.11 9.316-9.316 18.632-19.098 28.879-27.482 4.658-3.726 10.247 0 17.234-1.397 2.329-8.384 11.645-15.837 20.495-13.508 3.726 0.932 11.179-8.85 13.508-9.782 3.726-1.397 1.863 3.726 1.863 6.987 8.85-6.987 20.961-10.713 32.14-14.906" fill="#ffffff" fill-rule="nonzero" stroke="none" stroke-width="1" stroke-linecap="butt" stroke-linejoin="miter" stroke-miterlimit="10" stroke-dasharray="" stroke-dashoffset="0" font-family="none" font-weight="none" font-size="none" text-anchor="none" style="mix-blend-mode: normal" data-fill-palette-color="tertiary" />
                     </g>
                     <g transform="matrix(1,0,0,1,64,120.19880715705764)">
                        <svg viewBox="0 0 192 119.6023856858847" height="119.6023856858847" width="192">
                           <g>
                              <svg viewBox="0 0 192 119.6023856858847" height="119.6023856858847" width="192">
                                 <g>
                                    <svg viewBox="0 0 192 119.6023856858847" height="119.6023856858847" width="192">
                                       <g>
                                          <svg viewBox="0 0 192 119.6023856858847" height="119.6023856858847" width="192">
                                             <g>
                                                <svg viewBox="0 0 192 119.6023856858847" height="119.6023856858847" width="192">
                                                   <g>
                                                      <svg viewBox="0 0 192 119.6023856858847" height="119.6023856858847" width="192">
                                                         <g transform="matrix(1,0,0,1,0,0)">
                                                            <svg width="192" viewBox="-4.150000095367432 -36.25 75.45000457763672 47" height="119.6023856858847" data-palette-color="#7a26c1">
                                                               <path d="M6.85-29.2L6.85-29.2Q5.1-29.2 4.17-30.08 3.25-30.95 3.25-32.55L3.25-32.55Q3.25-34.15 4.17-35 5.1-35.85 6.85-35.85L6.85-35.85Q8.55-35.85 9.47-35 10.4-34.15 10.4-32.55L10.4-32.55Q10.4-30.95 9.47-30.08 8.55-29.2 6.85-29.2ZM4.15-25L9.5-25 9.5 2.2Q9.5 5.4 8.33 7.28 7.15 9.15 5.28 9.95 3.4 10.75 1.3 10.75L1.3 10.75Q-0.4 10.75-1.8 10.3-3.2 9.85-4.15 9.1L-4.15 9.1-3.25 4.8Q-2.55 5.4-1.58 5.8-0.6 6.2 0.6 6.2L0.6 6.2Q2.2 6.2 3.18 5.18 4.15 4.15 4.15 1.7L4.15 1.7 4.15-25ZM31.25 0.5L31.25 0.5Q29.05 0.5 27.22-0.35 25.4-1.2 24.15-2.73 22.9-4.25 22.3-6.15L22.3-6.15 22.95-7 22.55 0 17.85 0 17.85-36.25 23.2-36.25 23.2-18.7 22.6-19.55Q23.55-22.15 25.85-23.83 28.15-25.5 31.4-25.5L31.4-25.5Q34.4-25.5 36.92-23.95 39.45-22.4 40.9-19.5 42.35-16.6 42.35-12.45L42.35-12.45Q42.35-8.4 40.87-5.5 39.4-2.6 36.87-1.05 34.35 0.5 31.25 0.5ZM30.1-3.8L30.1-3.8Q33.35-3.8 35.17-6.13 37-8.45 37-12.5L37-12.5Q37-16.55 35.2-18.85 33.4-21.15 30.15-21.15L30.15-21.15Q28.05-21.15 26.5-20.08 24.95-19 24.07-17.05 23.2-15.1 23.2-12.4L23.2-12.4Q23.2-9.75 24.05-7.83 24.9-5.9 26.47-4.85 28.05-3.8 30.1-3.8ZM46.65-25L53.09-25 60.15-14.3 61.15-14.15 71.3 0 64.95 0 57.59-11 56.45-11.4 46.65-25ZM65-25L71.15-25 61.34-11.6 60.25-11.65 52.25 0 46.15 0 56.8-14.25 57.84-14.15 65-25Z" opacity="1" transform="matrix(1,0,0,1,0,0)" fill="#ffffff" class="undefined-text-0" data-fill-palette-color="primary" id="text-0" />
                                                            </svg>
                                                         </g>
                                                      </svg>
                                                   </g>
                                                </svg>
                                             </g>
                                          </svg>
                                       </g>
                                       <g />
                                    </svg>
                                 </g>
                              </svg>
                           </g>
                        </svg>
                     </g>
                  </svg>
               </g>
               <defs />
            </svg>
            <rect width="320" height="360" fill="none" stroke="none" visibility="hidden" />
         </g>
      </svg>
   </g>
</svg>